<svg id="Capa_3" data-name="Capa 3" xmlns="http://www.w3.org/2000/svg" viewBox="0 0 570.58 570.58"><path d="M585.29,80.15v439.7a65.62,65.62,0,0,1-65.44,65.44H80.15a65.62,65.62,0,0,1-65.44-65.44V80.15A65.62,65.62,0,0,1,80.15,14.71h24.68c0,32.59,4.3,101.23,40.91,184.58,49.41,112.5,56.7,144,51.89,175.9-6.22,41.32-22.49,76.65-30.45,92.09a51.29,51.29,0,1,0,16.4,5.72c8.79-19.78,24.1-55.52,27.57-71.83,6.84-32.25,8.53-57-7.25-106.65-10.55-33.22-19-47.17-45.76-111C137,133.07,121,59.05,121.68,14.71H388.82c4.27,18.63,3.19,45.8-3.13,79.13-9,47.72-4.28,66.76-10,74.53-4.87,6.57-11.41,8.07-22.16,14.21C343.74,188.15,325,201.47,309,235c-9.27,19.41-11.7,37-20.29,77.91-13.07,62.22-24,78.14-33.56,131.26-3.07,17-3.26,37.44,3.11,61.82,4.19,16,9.41,36,27.07,47.43,10.1,6.53,23.27,7,49.62,7.9,30.88,1.07,35.6-4.24,37.22-6.77,3.73-5.86,3.29-16.37-2.26-21.46-13.82-12.68-50.68,22.6-76,8.71-22.13-12.14-23.13-35.27-25.73-54.49-3.13-23.18,1.26-44.51,20.52-113.43,18.63-66.65,17.94-89.29,32.43-125.75,11-27.76,28.9-43.67,53.28-49.27,31-7.11,58.83,19.42,60.9,21.46,21.31,20.9,21.95,43,30.32,88.58,17.21,93.76,40.14,137.82,36.22,180.16-3.75,40.61-14.2,54.09-23.48,55.74-42.95,7.63-73.63-17.65-84.79-12.41-6.27,2.94-8.22,17.94-3.38,24.42,5,6.68,13.9,7,35,6.77,36.28-.32,55.47-1.83,61.62-6.1,9-6.23,18-15.8,24.1-43.58,9.54-43.13,1.49-67.87-15.79-137.76-11.25-45.48-15-68.6-24-116.25-5.42-28.83-20.08-56.26-45.95-74.58-12.84-9.1-13.66-7.46-21.42-12.42-26.2-16.74,11.6-89.62.76-158.17H519.85A65.62,65.62,0,0,1,585.29,80.15Z" transform="translate(-14.71 -14.71)"/></svg>