<svg id="Capa_5" data-name="Capa 5" xmlns="http://www.w3.org/2000/svg" viewBox="0 0 508.59 508.59"><path d="M496.87,48.47H101.64A56.84,56.84,0,0,0,45,105.15V500.38a56.84,56.84,0,0,0,56.68,56.68H496.87a56.84,56.84,0,0,0,56.68-56.68V105.15A56.84,56.84,0,0,0,496.87,48.47Zm15.89,454.75c-15.78,32-50.12,36.81-72.14,37.11A28.39,28.39,0,0,1,419.85,549C405,549,393,538.4,393,525.39s12-23.57,26.87-23.57c10.67,0,19.88,5.45,24.22,13.35,19.39-.8,37.71-5.67,46.27-23,10.59-21.47,14.36-64.79-27.85-149.27-11-21.92-32.06-67.56-41.67-99.55-5.18-17.27-23.48-30-36.57-30h-.35c-20.48.36-33.15,11.17-39.87,34-11.44,38.91-20.79,56.63-33.74,81.16-2.91,5.53-5.93,11.24-9.27,17.75-10.27,20-23.72,49.93-29.53,78.88-6.18,30.86-2.47,53.76,11,68.05a61.57,61.57,0,0,0,37.24,19.1c4.82-6.34,13-10.52,22.38-10.52,14.84,0,26.87,10.55,26.87,23.57S357,549,342.13,549c-9.81,0-18.4-4.61-23.08-11.5h0a85.91,85.91,0,0,1-54.71-27.05C245,489.87,239.11,459.55,247,420.28c6.37-31.77,20.81-64,31.8-85.38,3.4-6.64,6.45-12.42,9.4-18,12.72-24.11,21.13-40,31.87-76.54,8.42-28.64,25.72-45.94,50.4-50.66-.43-13.88-3.35-34.51-8.46-46.87-12-29.09-44.52-52.56-84.84-61.26-50.48-10.89-101.8,2.51-137.29,35.84-43,40.36-61,102.92-43.88,152.12,4.18,12,8,21.66,11.72,31,9.09,23,17,42.77,25,84.41a226.43,226.43,0,0,1,3.94,53.28,57.2,57.2,0,1,1-24.89-3.07,201.57,201.57,0,0,0-3.59-45.44c-7.65-39.36-14.75-57.28-23.74-80-3.8-9.59-7.73-19.5-12.08-32C62,248,61.8,214.69,71.8,181.5a189.87,189.87,0,0,1,51-82.33C164.23,60.22,223.92,44.5,282.43,57.12c48.95,10.57,87.33,39,102.67,76.16,6.55,15.86,9.88,39.7,10.33,56.39,21.83,5,42.53,23.82,49.34,46.48,9.12,30.37,29.48,74.36,40.08,95.56C522.42,406.9,531.81,464.61,512.76,503.22Z" transform="translate(-44.96 -48.47)"/></svg>